<?xml version="1.0" encoding="UTF-8" standalone="no"?>
<!DOCTYPE svg PUBLIC "-//W3C//DTD SVG 1.1//EN" "http://www.w3.org/Graphics/SVG/1.1/DTD/svg11.dtd">
<svg xmlns="http://www.w3.org/2000/svg" version="1.1" viewBox="0.00 0.00 1280.00 1526.00">
<path fill="#00275d" d="
  M 377.94 686.56
  C 310.36 617.73 269.45 526.21 264.07 430.02
  C 251.89 212.01 415.93 24.35 634.33 8.89
  Q 642.63 8.31 654.31 8.27
  Q 825.76 7.80 997.04 8.06
  A 0.50 0.50 0.0 0 1 997.39 8.91
  L 878.28 128.39
  A 1.45 1.43 22.2 0 1 877.26 128.81
  Q 791.49 128.62 707.19 128.86
  Q 689.24 128.91 687.19 128.96
  C 537.38 132.48 416.23 255.95 416.42 405.81
  C 416.53 494.33 456.84 576.48 527.99 629.47
  C 575.97 665.21 632.52 684.69 692.49 684.56
  Q 799.49 684.33 906.47 684.68
  Q 907.02 684.68 907.41 685.06
  L 1026.81 804.90
  A 0.49 0.49 0.0 0 1 1026.65 805.70
  Q 1026.31 805.84 1026.01 805.65
  Q 1025.76 805.49 1025.46 805.49
  Q 841.73 805.52 658.00 805.48
  C 553.13 805.46 451.77 761.77 377.94 686.56
  Z"
/>
<rect fill="#0078ed" x="536.25" y="333.24" width="494.00" height="144.76" rx="0.54"/>
<rect fill="#0078ed" x="12.56" y="942.00" width="126.64" height="29.82" rx="5.79"/>
<rect fill="#0078ed" x="408.31" y="942.00" width="126.64" height="29.82" rx="5.79"/>
<path fill="#0078ed" d="
  M 337.23 980.52
  A 0.65 0.65 0.0 0 0 335.98 980.28
  Q 316.26 1028.58 296.98 1076.70
  C 292.74 1087.29 285.03 1089.21 274.67 1089.61
  C 262.60 1090.07 254.56 1087.08 249.92 1075.46
  Q 230.84 1027.71 211.57 980.38
  A 0.82 0.81 -56.1 0 0 210.00 980.69
  Q 210.00 1041.41 210.00 1102.50
  C 210.00 1107.20 206.25 1108.20 202.10 1108.23
  Q 191.22 1108.30 187.99 1108.27
  C 181.85 1108.21 181.30 1104.00 181.29 1098.71
  Q 181.15 1033.02 181.33 967.33
  C 181.36 957.57 182.02 944.34 194.51 942.75
  Q 201.91 941.81 213.23 942.29
  Q 221.99 942.67 223.73 943.11
  C 233.46 945.62 235.91 958.45 239.18 966.66
  Q 255.84 1008.54 272.37 1050.04
  A 1.72 1.72 0.0 0 0 275.57 1050.05
  Q 295.30 1001.37 314.72 951.96
  C 317.76 944.22 323.97 942.66 332.21 942.33
  Q 344.40 941.83 353.24 942.76
  C 363.31 943.83 365.94 954.84 365.97 963.06
  Q 366.08 995.25 365.98 1100.46
  C 365.97 1105.82 364.31 1108.18 358.92 1108.22
  Q 352.21 1108.27 345.52 1108.26
  C 340.98 1108.25 337.24 1106.97 337.25 1101.93
  Q 337.30 1041.01 337.23 980.52
  Z"
/>
<path fill="#0078ed" d="
  M 648.91 1039.73
  L 607.26 1039.76
  A 0.52 0.52 0.0 0 0 606.74 1040.28
  Q 606.77 1070.42 606.73 1100.81
  C 606.73 1105.82 605.05 1108.19 600.00 1108.22
  Q 592.68 1108.27 585.37 1108.25
  C 580.29 1108.24 577.11 1106.97 577.09 1101.43
  Q 576.95 1059.23 577.03 1017.01
  C 577.04 1011.72 579.35 1009.99 584.56 1009.99
  Q 625.91 1010.01 667.25 1009.96
  C 675.46 1009.95 681.35 1008.90 683.26 999.73
  Q 685.10 990.89 683.22 981.99
  C 681.24 972.64 674.95 972.12 666.08 972.08
  Q 625.38 971.91 584.70 972.03
  C 579.59 972.05 577.39 970.84 577.15 965.56
  Q 576.53 952.27 577.24 947.24
  Q 577.95 942.23 583.69 942.22
  Q 630.70 942.08 677.72 942.40
  C 697.87 942.54 708.88 954.71 712.41 973.57
  C 716.79 996.99 714.84 1034.95 683.51 1038.85
  A 0.51 0.50 71.4 0 0 683.14 1039.61
  Q 700.21 1068.83 717.34 1098.17
  C 719.04 1101.09 719.82 1105.46 716.64 1107.36
  C 713.13 1109.45 697.07 1108.26 692.25 1108.25
  Q 688.22 1108.24 686.25 1104.83
  Q 667.66 1072.57 649.50 1040.08
  Q 649.30 1039.73 648.91 1039.73
  Z"
/>
<path fill="#0078ed" d="
  M 784.48 1038.29
  C 767.01 1035.17 762.50 1019.57 761.45 1004.05
  C 759.68 977.91 758.67 942.11 795.69 942.13
  Q 835.09 942.16 874.50 942.29
  C 882.21 942.31 885.46 942.17 885.50 950.68
  Q 885.53 958.35 885.47 965.98
  C 885.43 970.54 882.87 972.00 878.51 972.00
  C 851.65 972.01 824.70 971.58 797.86 972.25
  C 794.37 972.33 792.10 974.24 791.67 977.73
  Q 789.97 991.60 791.61 1003.57
  C 792.18 1007.69 795.22 1009.06 799.23 1009.03
  Q 826.67 1008.86 854.08 1009.12
  Q 864.58 1009.21 869.23 1010.78
  C 882.93 1015.39 888.86 1030.04 889.62 1043.94
  Q 890.52 1060.37 889.49 1075.00
  C 888.31 1091.75 878.63 1107.90 859.93 1107.94
  Q 790.17 1108.12 767.24 1107.98
  C 762.09 1107.95 761.35 1104.21 761.28 1099.72
  Q 761.16 1092.13 761.30 1084.51
  C 761.39 1079.35 764.51 1078.25 769.21 1078.25
  Q 810.99 1078.24 852.76 1078.26
  Q 859.24 1078.27 859.85 1071.25
  C 860.49 1063.89 861.77 1043.64 857.06 1040.12
  C 855.23 1038.75 851.31 1038.76 848.99 1038.76
  Q 823.03 1038.77 797.07 1038.72
  Q 786.76 1038.70 784.48 1038.29
  Z"
/>
<path fill="#0078ed" d="
  M 983.50 1108.21
  C 966.44 1108.18 948.79 1105.10 940.02 1088.24
  C 934.66 1077.93 932.93 1066.67 932.56 1055.18
  Q 931.56 1024.05 932.25 997.50
  C 933.06 966.19 943.49 943.20 978.87 942.48
  Q 1002.80 942.00 1032.75 942.51
  C 1071.69 943.17 1079.71 969.04 1080.09 1002.31
  C 1080.33 1023.13 1081.14 1044.49 1079.06 1065.21
  C 1076.22 1093.37 1060.87 1108.16 1032.06 1108.24
  Q 1016.95 1108.28 983.50 1108.21
  Z
  M 961.86 1050.06
  C 961.99 1064.09 962.97 1078.35 981.00 1078.32
  Q 1005.50 1078.29 1030.00 1078.27
  C 1047.57 1078.26 1050.15 1067.21 1050.21 1052.50
  Q 1050.32 1024.15 1049.99 995.82
  C 1049.81 981.10 1046.53 972.57 1030.00 972.31
  Q 997.71 971.80 979.26 972.31
  C 960.58 972.83 961.87 992.18 961.78 1005.25
  Q 961.64 1027.66 961.86 1050.06
  Z"
/>
<path fill="#0078ed" d="
  M 1152.07 982.21
  Q 1151.94 1040.03 1151.79 1100.00
  C 1151.78 1105.76 1150.62 1108.17 1144.45 1108.23
  Q 1132.26 1108.33 1128.51 1108.24
  C 1123.18 1108.10 1122.51 1103.52 1122.51 1099.25
  Q 1122.49 1033.63 1122.52 968.00
  C 1122.52 960.32 1123.17 949.24 1130.71 944.74
  C 1137.41 940.75 1153.44 942.06 1161.00 942.74
  C 1167.60 943.33 1171.60 948.80 1174.79 954.47
  Q 1207.09 1011.83 1239.91 1070.29
  A 0.70 0.70 0.0 0 0 1241.22 1069.95
  Q 1241.24 1010.75 1241.45 951.00
  C 1241.46 946.54 1241.99 942.24 1247.68 942.17
  C 1253.02 942.10 1258.38 942.39 1263.72 942.22
  C 1269.47 942.04 1270.50 945.95 1270.50 950.96
  Q 1270.50 1016.86 1270.51 1082.75
  C 1270.51 1109.52 1258.40 1109.21 1236.46 1108.07
  C 1227.57 1107.61 1223.26 1104.16 1218.96 1096.54
  Q 1186.85 1039.66 1154.13 981.67
  Q 1152.07 978.03 1152.07 982.21
  Z"
/>
<path fill="#0078ed" d="
  M 59.01 1107.66
  C 9.92 1107.52 12.17 1061.97 12.91 1027.51
  C 13.18 1014.63 21.48 1009.88 33.24 1009.79
  Q 81.98 1009.44 130.70 1009.50
  C 135.14 1009.50 137.94 1010.68 138.11 1015.44
  Q 138.26 1019.61 138.17 1032.47
  C 138.13 1037.95 135.28 1039.27 130.16 1039.26
  Q 86.76 1039.21 43.37 1039.27
  Q 42.83 1039.27 42.78 1039.81
  C 41.89 1050.41 40.72 1065.98 52.23 1070.50
  Q 55.83 1071.92 67.82 1071.95
  Q 99.59 1072.05 131.37 1071.99
  C 135.98 1071.98 138.94 1073.04 139.07 1078.07
  Q 139.36 1089.77 139.23 1101.49
  C 139.18 1106.26 136.41 1107.75 131.89 1107.75
  Q 95.44 1107.77 59.01 1107.66
  Z"
/>
<path fill="#0078ed" d="
  M 455.76 1107.79
  C 405.58 1107.82 407.89 1062.40 408.68 1027.02
  Q 408.78 1022.50 410.09 1019.75
  C 413.91 1011.76 420.12 1009.86 428.98 1009.79
  Q 504.39 1009.24 528.75 1009.50
  C 536.32 1009.58 533.96 1026.23 533.90 1032.47
  C 533.84 1038.00 531.09 1039.26 525.92 1039.26
  Q 482.45 1039.24 439.11 1039.25
  A 0.86 0.86 0.0 0 0 438.25 1040.11
  C 438.15 1050.64 436.10 1065.56 447.86 1070.39
  Q 451.64 1071.94 463.97 1071.97
  Q 513.96 1072.10 528.00 1071.99
  C 534.40 1071.94 534.91 1075.58 534.97 1081.13
  Q 535.08 1091.31 534.96 1101.49
  C 534.91 1106.26 532.17 1107.75 527.64 1107.75
  Q 491.69 1107.77 455.76 1107.79
  Z"
/>
<path fill="#00275d" d="
  M 772.84 1218.42
  A 0.76 0.76 0.0 0 0 771.42 1218.42
  L 745.81 1283.25
  A 0.37 0.37 0.0 0 0 746.15 1283.75
  Q 758.37 1283.76 770.74 1283.75
  C 774.16 1283.75 775.74 1286.20 777.02 1289.32
  Q 779.81 1296.12 782.55 1302.93
  C 785.17 1309.45 783.59 1314.25 776.01 1314.25
  Q 755.03 1314.23 734.05 1314.26
  Q 733.54 1314.26 733.36 1314.73
  Q 727.62 1329.40 721.67 1343.92
  C 720.62 1346.50 717.53 1347.21 714.70 1347.22
  C 710.09 1347.24 694.83 1348.41 691.53 1346.18
  Q 688.52 1344.15 690.40 1339.46
  Q 729.45 1242.00 748.27 1195.79
  C 755.70 1177.56 779.59 1173.09 791.94 1189.08
  C 794.72 1192.68 796.47 1198.00 798.24 1202.36
  Q 825.50 1269.55 852.75 1336.75
  C 854.96 1342.18 856.31 1347.19 848.24 1347.22
  Q 838.85 1347.26 829.45 1347.28
  C 824.01 1347.30 823.04 1343.64 821.33 1339.37
  Q 797.00 1278.74 772.84 1218.42
  Z"
/>
<rect fill="#00275d" x="897.05" y="1181.01" width="126.66" height="29.74" rx="5.84"/>
<path fill="#00275d" d="
  M 1164.53 1283.75
  C 1164.29 1280.70 1161.30 1277.85 1157.44 1277.84
  Q 1127.34 1277.72 1097.25 1277.72
  C 1076.19 1277.71 1068.31 1265.73 1066.50 1246.24
  Q 1065.20 1232.30 1066.23 1215.74
  C 1067.08 1202.22 1072.70 1187.85 1086.23 1183.13
  Q 1090.64 1181.60 1101.34 1181.56
  Q 1142.53 1181.42 1183.73 1181.39
  C 1187.28 1181.39 1190.12 1183.21 1190.18 1186.82
  Q 1190.34 1195.89 1190.20 1204.98
  C 1190.13 1209.49 1187.60 1211.01 1183.26 1211.01
  Q 1146.41 1210.98 1109.57 1211.01
  C 1097.36 1211.02 1096.35 1211.78 1095.83 1223.61
  C 1095.56 1229.59 1093.22 1248.03 1102.80 1248.00
  Q 1130.54 1247.92 1158.27 1248.19
  Q 1168.84 1248.29 1173.58 1249.85
  C 1188.02 1254.59 1193.50 1268.84 1194.37 1283.19
  C 1195.72 1305.72 1197.77 1346.62 1164.18 1346.94
  Q 1145.07 1347.12 1073.96 1346.98
  C 1069.34 1346.97 1066.29 1346.00 1066.13 1340.93
  Q 1065.86 1332.48 1066.09 1324.02
  C 1066.25 1318.17 1068.97 1317.24 1074.38 1317.25
  Q 1114.88 1317.25 1155.37 1317.25
  C 1160.84 1317.25 1164.24 1315.88 1164.65 1310.06
  Q 1165.58 1296.91 1164.53 1283.75
  Z"
/>
<path fill="#00275d" d="
  M 182.65 1289.05
  Q 199.63 1246.51 216.92 1203.43
  C 220.75 1193.90 222.50 1181.88 235.50 1181.69
  C 258.22 1181.36 272.97 1176.68 272.98 1205.44
  Q 273.02 1273.22 272.99 1341.00
  C 272.99 1346.03 269.52 1347.22 264.98 1347.23
  Q 257.84 1347.25 250.72 1347.29
  Q 244.30 1347.32 244.29 1340.18
  Q 244.21 1279.82 244.27 1219.59
  A 0.70 0.70 0.0 0 0 242.92 1219.33
  Q 224.39 1264.74 206.01 1310.54
  C 198.81 1328.48 192.24 1328.96 174.00 1328.24
  C 164.64 1327.86 159.53 1320.91 156.28 1312.80
  Q 137.52 1265.88 118.58 1219.32
  A 0.82 0.82 0.0 0 0 117.00 1219.63
  Q 117.00 1280.03 116.98 1340.75
  C 116.98 1346.26 113.63 1347.26 108.69 1347.25
  Q 101.69 1347.24 94.73 1347.27
  Q 88.31 1347.30 88.30 1340.19
  Q 88.21 1274.97 88.27 1209.75
  C 88.28 1202.72 88.41 1192.60 92.01 1187.32
  C 95.48 1182.22 100.50 1181.59 106.90 1181.53
  C 114.27 1181.47 126.38 1180.33 132.39 1182.73
  Q 138.08 1185.00 140.52 1191.21
  Q 159.87 1240.39 179.38 1289.06
  A 1.76 1.76 0.0 0 0 182.65 1289.05
  Z"
/>
<path fill="#00275d" d="
  M 350.15 1345.93
  C 318.79 1340.78 315.17 1309.52 315.12 1283.93
  Q 315.08 1260.85 315.34 1237.76
  C 315.70 1206.30 326.22 1181.59 361.96 1181.53
  Q 388.98 1181.48 416.00 1181.56
  C 454.56 1181.68 462.64 1208.62 463.07 1241.07
  Q 463.35 1262.65 463.27 1284.25
  C 463.15 1318.61 456.06 1346.85 414.94 1347.15
  Q 390.85 1347.33 366.75 1347.29
  C 361.26 1347.28 354.90 1346.70 350.15 1345.93
  Z
  M 345.93 1302.39
  C 347.20 1312.60 353.54 1317.16 363.50 1317.21
  Q 403.82 1317.39 415.94 1317.20
  C 430.68 1316.97 433.18 1304.23 433.24 1292.50
  Q 433.32 1277.31 433.22 1237.99
  C 433.21 1233.08 432.77 1228.85 431.88 1224.34
  C 429.35 1211.45 419.20 1211.12 408.50 1211.07
  Q 387.28 1210.95 366.07 1211.15
  C 359.73 1211.20 352.56 1212.16 349.30 1216.81
  C 344.76 1223.31 344.82 1234.99 344.80 1243.00
  C 344.75 1262.51 343.53 1283.05 345.93 1302.39
  Z"
/>
<path fill="#00275d" d="
  M 577.44 1278.73
  L 535.73 1278.74
  Q 535.31 1278.74 535.31 1279.17
  Q 535.12 1319.18 535.27 1340.50
  C 535.31 1346.07 532.18 1347.22 527.11 1347.24
  Q 520.84 1347.26 514.60 1347.26
  C 508.90 1347.25 505.57 1346.25 505.55 1339.93
  Q 505.43 1298.10 505.55 1256.26
  C 505.56 1250.84 507.64 1248.96 513.07 1248.97
  Q 554.55 1249.07 596.01 1248.94
  C 605.33 1248.91 610.60 1247.13 612.00 1237.32
  C 613.55 1226.50 613.83 1211.10 598.81 1211.06
  Q 555.48 1210.95 512.15 1211.01
  C 508.56 1211.02 506.10 1209.64 505.83 1205.93
  Q 505.23 1197.83 505.72 1187.51
  C 505.93 1183.25 507.90 1181.53 512.23 1181.52
  Q 556.10 1181.43 599.97 1181.55
  Q 612.50 1181.59 617.74 1183.14
  C 632.76 1187.58 638.58 1199.60 641.24 1214.73
  C 645.21 1237.37 642.43 1274.53 611.93 1277.78
  A 0.51 0.50 71.8 0 0 611.55 1278.54
  Q 628.38 1307.26 645.13 1336.10
  C 648.43 1341.79 648.59 1347.29 640.41 1347.27
  Q 630.68 1347.24 621.01 1347.26
  Q 616.49 1347.27 614.32 1343.44
  Q 596.08 1311.32 578.05 1279.09
  Q 577.85 1278.73 577.44 1278.73
  Z"
/>
<path fill="#00275d" d="
  M 927.09 1278.89
  C 926.50 1294.40 924.83 1310.97 946.34 1310.98
  Q 981.55 1311.01 1016.75 1311.00
  Q 1023.33 1311.00 1023.67 1317.31
  Q 1023.94 1322.31 1023.72 1336.28
  C 1023.62 1342.30 1023.97 1346.76 1016.87 1346.76
  Q 980.67 1346.76 944.51 1346.73
  C 894.88 1346.70 896.21 1302.05 897.47 1265.58
  Q 897.63 1261.12 899.03 1258.37
  C 903.07 1250.43 909.26 1248.85 918.25 1248.79
  Q 966.55 1248.47 1014.84 1248.49
  C 1019.45 1248.49 1022.47 1249.54 1022.63 1254.57
  Q 1022.90 1263.12 1022.72 1271.68
  C 1022.61 1276.59 1019.72 1278.27 1015.01 1278.26
  Q 971.36 1278.19 927.72 1278.28
  Q 927.11 1278.28 927.09 1278.89
  Z"
/>
<path fill="#000000" d="
  M 786.85 1505.90
  C 779.36 1511.73 769.36 1511.75 760.47 1509.56
  C 751.10 1507.26 748.85 1498.93 748.78 1490.39
  Q 748.67 1475.96 748.76 1469.75
  C 748.89 1460.87 752.02 1453.23 761.51 1451.31
  C 769.94 1449.61 779.21 1449.30 786.84 1453.89
  Q 787.50 1454.29 787.50 1453.52
  L 787.50 1431.25
  Q 787.50 1430.75 788.00 1430.75
  L 793.72 1430.75
  Q 794.38 1430.75 794.38 1431.41
  L 794.37 1509.06
  Q 794.37 1510.00 793.44 1510.00
  L 788.03 1510.00
  A 0.72 0.72 0.0 0 1 787.31 1509.22
  L 787.56 1506.28
  Q 787.64 1505.28 786.85 1505.90
  Z
  M 759.94 1502.06
  C 769.17 1507.57 784.68 1505.28 786.53 1492.13
  Q 788.22 1480.12 787.15 1468.09
  C 786.63 1462.16 784.81 1458.25 778.76 1457.25
  C 771.77 1456.09 757.64 1455.20 756.24 1465.00
  C 755.43 1470.66 753.20 1498.04 759.94 1502.06
  Z"
/>
<path fill="#000000" d="
  M 1149.50 1506.03
  L 1149.50 1509.25
  Q 1149.50 1510.00 1148.75 1510.00
  L 1143.25 1510.00
  A 0.75 0.75 0.0 0 1 1142.50 1509.25
  L 1142.51 1431.50
  A 0.75 0.74 90.0 0 1 1143.25 1430.75
  L 1149.00 1430.75
  Q 1149.50 1430.75 1149.50 1431.25
  L 1149.50 1453.53
  Q 1149.50 1454.23 1150.11 1453.88
  C 1157.98 1449.30 1167.62 1449.50 1176.26 1451.44
  C 1186.32 1453.69 1188.14 1462.92 1188.22 1471.75
  C 1188.33 1483.00 1188.97 1490.90 1186.99 1498.88
  C 1184.34 1509.62 1175.67 1509.97 1166.59 1510.76
  Q 1157.26 1511.57 1149.84 1505.86
  Q 1149.50 1505.60 1149.50 1506.03
  Z
  M 1149.89 1467.20
  C 1149.03 1476.91 1146.51 1501.11 1160.51 1503.96
  C 1167.20 1505.32 1179.48 1505.14 1180.74 1495.99
  Q 1182.40 1484.00 1181.11 1468.88
  C 1180.17 1457.94 1174.57 1456.33 1164.62 1456.66
  C 1156.35 1456.94 1150.69 1458.07 1149.89 1467.20
  Z"
/>
<path fill="#000000" d="
  M 141.74 1433.73
  C 156.07 1433.70 161.67 1443.09 161.84 1456.19
  Q 162.09 1474.91 161.46 1490.76
  Q 160.70 1509.65 141.57 1509.95
  Q 124.46 1510.22 107.37 1509.90
  Q 106.75 1509.89 106.75 1509.27
  L 106.75 1434.51
  A 0.79 0.79 0.0 0 1 107.54 1433.72
  Q 124.52 1433.76 141.74 1433.73
  Z
  M 113.63 1440.64
  L 113.85 1503.22
  A 0.64 0.64 0.0 0 0 114.49 1503.86
  L 141.18 1503.77
  A 13.88 13.73 89.8 0 0 154.86 1489.84
  L 154.74 1453.74
  A 13.88 13.73 89.8 0 0 140.96 1439.91
  L 114.27 1440.00
  A 0.64 0.64 0.0 0 0 113.63 1440.64
  Z"
/>
<rect fill="#000000" x="584.50" y="1433.66" width="7.00" height="76.34" rx="0.63"/>
<path fill="#000000" d="
  M 1012.28 1445.55
  A 0.31 0.30 -44.9 0 0 1011.69 1445.55
  L 995.04 1509.44
  A 0.74 0.74 0.0 0 1 994.32 1510.00
  L 983.96 1510.00
  Q 983.41 1510.00 983.30 1509.45
  L 969.35 1434.27
  Q 969.23 1433.66 969.85 1433.66
  L 975.72 1433.63
  Q 976.27 1433.63 976.37 1434.18
  L 989.13 1502.69
  A 0.34 0.34 0.0 0 0 989.74 1502.84
  Q 990.14 1502.31 990.02 1501.65
  Q 989.92 1501.10 990.06 1500.57
  L 1006.50 1437.05
  Q 1006.64 1436.50 1007.21 1436.50
  L 1016.66 1436.50
  Q 1017.33 1436.50 1017.50 1437.15
  L 1034.33 1502.24
  A 0.31 0.31 0.0 0 0 1034.94 1502.22
  L 1047.62 1434.09
  A 0.61 0.61 0.0 0 1 1048.23 1433.59
  L 1054.31 1433.60
  Q 1054.76 1433.61 1054.68 1434.05
  L 1040.70 1509.45
  Q 1040.60 1510.00 1040.04 1510.00
  L 1029.79 1510.00
  Q 1029.11 1510.00 1028.94 1509.35
  L 1012.28 1445.55
  Z"
/>
<path fill="#000000" d="
  M 191.17 1480.53
  Q 190.52 1487.83 191.73 1494.04
  C 194.71 1509.28 216.92 1504.91 226.22 1499.80
  A 0.56 0.56 0.0 0 1 226.99 1500.03
  L 229.36 1504.65
  Q 229.65 1505.20 229.14 1505.54
  C 222.19 1510.22 213.40 1511.08 205.28 1510.57
  C 180.74 1509.05 184.15 1491.60 184.29 1472.99
  C 184.36 1463.64 186.34 1454.79 196.50 1451.93
  Q 208.33 1448.61 217.74 1451.54
  C 230.21 1455.41 230.54 1468.89 229.94 1479.58
  A 0.45 0.44 1.3 0 1 229.49 1480.00
  L 191.75 1480.00
  Q 191.22 1480.00 191.17 1480.53
  Z
  M 192.09 1473.57
  L 222.25 1473.35
  A 0.78 0.78 0.0 0 0 223.02 1472.57
  L 223.00 1469.60
  A 12.97 12.07 89.6 0 0 210.84 1456.71
  L 203.26 1456.77
  A 12.97 12.07 89.6 0 0 191.28 1469.82
  L 191.30 1472.79
  A 0.78 0.78 0.0 0 0 192.09 1473.57
  Z"
/>
<path fill="#000000" d="
  M 285.00 1494.25
  C 284.86 1485.29 270.71 1482.56 261.97 1479.81
  C 251.94 1476.66 246.48 1465.58 253.86 1457.04
  C 261.70 1447.99 278.14 1449.55 288.16 1453.04
  Q 288.66 1453.21 288.46 1453.70
  L 286.64 1458.25
  A 0.58 0.57 18.6 0 1 285.95 1458.59
  C 278.50 1456.47 262.01 1454.25 258.02 1462.99
  C 255.21 1469.14 262.23 1473.20 267.55 1474.86
  Q 276.55 1477.65 283.00 1480.72
  C 293.78 1485.85 294.84 1500.50 285.21 1507.09
  C 276.86 1512.81 262.30 1510.80 253.10 1507.47
  Q 252.57 1507.28 252.74 1506.75
  L 254.34 1501.58
  A 0.47 0.46 -72.3 0 1 254.93 1501.27
  Q 262.16 1503.66 268.75 1504.44
  C 275.50 1505.23 285.13 1502.65 285.00 1494.25
  Z"
/>
<path fill="#000000" d="
  M 319.10 1492.98
  C 321.20 1509.20 343.60 1505.18 353.27 1500.04
  A 1.06 1.06 0.0 0 1 354.70 1500.48
  L 356.85 1504.48
  A 0.92 0.91 60.1 0 1 356.53 1505.69
  C 349.35 1510.17 341.10 1511.07 332.90 1510.58
  C 307.41 1509.06 311.41 1489.16 311.86 1470.75
  C 312.21 1456.22 320.16 1450.34 333.97 1450.28
  C 354.56 1450.19 358.38 1460.52 357.43 1479.37
  Q 357.40 1480.00 356.77 1480.00
  L 319.50 1480.00
  A 0.98 0.98 0.0 0 0 318.52 1480.95
  Q 318.31 1486.89 319.10 1492.98
  Z
  M 319.12 1473.28
  L 350.28 1473.22
  A 0.25 0.25 0.0 0 0 350.53 1472.97
  L 350.53 1469.79
  A 13.05 11.81 89.9 0 0 338.70 1456.76
  L 330.66 1456.78
  A 13.05 11.81 89.9 0 0 318.87 1469.85
  L 318.87 1473.03
  A 0.25 0.25 0.0 0 0 319.12 1473.28
  Z"
/>
<path fill="#000000" d="
  M 388.66 1457.12
  C 402.07 1445.23 425.70 1447.75 426.02 1470.07
  Q 426.30 1489.72 426.26 1509.38
  A 0.61 0.61 0.0 0 1 425.65 1509.99
  L 419.80 1510.00
  Q 419.24 1510.01 419.24 1509.45
  Q 419.27 1491.76 419.23 1474.11
  Q 419.21 1466.02 417.68 1462.75
  C 412.25 1451.15 395.49 1458.12 388.56 1465.27
  Q 388.25 1465.59 388.25 1466.03
  L 388.25 1509.50
  Q 388.25 1510.01 387.75 1510.00
  L 381.99 1509.99
  A 0.56 0.56 0.0 0 1 381.43 1509.43
  L 381.24 1451.76
  Q 381.24 1451.00 382.00 1451.00
  L 387.67 1451.00
  A 0.64 0.64 0.0 0 1 388.31 1451.67
  L 388.01 1456.81
  Q 387.96 1457.74 388.66 1457.12
  Z"
/>
<path fill="#000000" d="
  M 526.44 1509.55
  C 518.73 1507.88 514.79 1500.40 514.72 1493.04
  Q 514.60 1481.18 514.79 1469.24
  C 515.02 1454.39 522.72 1450.75 536.38 1450.24
  C 550.29 1449.73 559.28 1453.30 559.75 1468.82
  C 560.04 1478.43 561.66 1493.87 557.71 1502.44
  C 553.06 1512.53 535.19 1511.45 526.44 1509.55
  Z
  M 525.72 1501.77
  C 530.28 1505.85 545.66 1505.55 549.90 1501.20
  C 554.71 1496.26 553.53 1476.82 552.88 1469.03
  C 552.03 1458.79 548.04 1457.05 538.50 1456.72
  C 529.15 1456.40 522.24 1457.82 521.87 1469.02
  C 521.52 1479.70 519.40 1496.12 525.72 1501.77
  Z"
/>
<path fill="#000000" d="
  M 687.76 1506.22
  C 678.64 1498.70 680.92 1484.68 681.04 1472.99
  C 681.19 1457.58 687.49 1450.33 703.21 1450.28
  C 723.80 1450.21 727.71 1460.56 726.69 1479.37
  Q 726.65 1480.00 726.02 1480.00
  L 688.72 1480.00
  A 0.94 0.93 1.3 0 0 687.78 1480.89
  Q 687.48 1487.08 688.49 1493.43
  C 691.04 1509.48 713.51 1504.99 722.95 1499.82
  Q 723.45 1499.55 723.72 1500.05
  L 726.19 1504.60
  Q 726.49 1505.16 725.96 1505.52
  C 717.13 1511.47 696.44 1513.39 687.76 1506.22
  Z
  M 688.51 1473.23
  L 719.49 1473.29
  A 0.29 0.29 0.0 0 0 719.78 1473.00
  L 719.78 1469.64
  A 12.87 12.03 -89.9 0 0 707.77 1456.75
  L 700.27 1456.73
  A 12.87 12.03 -89.9 0 0 688.22 1469.58
  L 688.22 1472.94
  A 0.29 0.29 0.0 0 0 688.51 1473.23
  Z"
/>
<path fill="#000000" d="
  M 832.95 1510.05
  C 823.44 1508.62 819.44 1502.13 819.17 1492.79
  Q 818.79 1479.62 819.04 1469.49
  C 819.27 1460.20 822.54 1452.41 832.73 1450.86
  Q 844.04 1449.13 853.24 1451.54
  C 861.91 1453.80 864.16 1462.27 864.22 1470.44
  C 864.31 1482.63 865.05 1491.06 863.02 1499.15
  C 859.72 1512.25 843.39 1511.61 832.95 1510.05
  Z
  M 826.19 1468.22
  C 825.59 1475.51 822.93 1500.80 832.66 1503.39
  C 839.55 1505.23 853.70 1506.40 856.33 1497.32
  Q 857.30 1493.97 857.49 1489.77
  Q 857.95 1479.31 857.10 1468.91
  C 856.22 1458.13 850.93 1456.36 841.04 1456.66
  C 831.97 1456.94 826.99 1458.41 826.19 1468.22
  Z"
/>
<path fill="#000000" d="
  M 896.32 1457.53
  Q 905.01 1450.41 916.40 1450.37
  Q 917.00 1450.37 917.00 1450.96
  L 917.00 1456.20
  Q 917.00 1456.71 916.50 1456.76
  Q 905.63 1457.82 896.69 1463.97
  A 2.18 2.17 -17.4 0 0 895.75 1465.76
  L 895.75 1509.25
  Q 895.75 1510.01 895.00 1510.00
  L 889.40 1509.99
  Q 888.75 1509.99 888.75 1509.34
  L 888.75 1452.00
  A 1.00 1.00 0.0 0 1 889.75 1451.00
  L 895.12 1451.00
  Q 895.75 1451.00 895.75 1451.63
  L 895.75 1457.26
  Q 895.75 1458.00 896.32 1457.53
  Z"
/>
<path fill="#000000" d="
  M 1087.08 1509.61
  C 1069.71 1506.19 1072.91 1486.30 1073.04 1472.99
  C 1073.19 1457.58 1079.49 1450.33 1095.21 1450.28
  C 1115.80 1450.21 1119.71 1460.56 1118.69 1479.37
  Q 1118.65 1480.00 1118.02 1480.00
  L 1080.72 1480.00
  A 0.94 0.93 1.3 0 0 1079.78 1480.89
  Q 1079.48 1487.08 1080.49 1493.43
  C 1083.04 1509.48 1105.51 1504.99 1114.95 1499.82
  Q 1115.45 1499.55 1115.72 1500.05
  L 1118.19 1504.60
  Q 1118.49 1505.16 1117.96 1505.52
  C 1109.26 1511.38 1097.08 1511.57 1087.08 1509.61
  Z
  M 1080.51 1473.23
  L 1111.49 1473.29
  A 0.29 0.29 0.0 0 0 1111.78 1473.00
  L 1111.78 1469.64
  A 12.87 12.03 -89.9 0 0 1099.77 1456.75
  L 1092.27 1456.73
  A 12.87 12.03 -89.9 0 0 1080.22 1469.58
  L 1080.22 1472.94
  A 0.29 0.29 0.0 0 0 1080.51 1473.23
  Z"
/>
<path fill="#000000" d="
  M 471.98 1503.72
  Q 472.01 1503.36 472.19 1502.86
  Q 481.38 1477.17 490.71 1451.50
  Q 490.89 1451.01 491.41 1451.01
  L 497.46 1451.00
  Q 498.14 1450.99 497.91 1451.64
  L 477.07 1509.47
  A 0.81 0.80 9.7 0 1 476.31 1510.00
  L 466.77 1510.00
  A 1.11 1.10 79.6 0 1 465.74 1509.28
  L 445.01 1451.73
  A 0.55 0.54 80.1 0 1 445.52 1451.00
  L 451.45 1451.00
  A 0.77 0.76 -9.7 0 1 452.17 1451.50
  L 471.16 1503.83
  A 0.42 0.42 0.0 0 0 471.98 1503.72
  Z"
/>
<path fill="#000000" d="
  M 637.99 1503.74
  L 657.08 1451.21
  A 0.32 0.32 0.0 0 1 657.38 1451.00
  L 663.91 1451.00
  A 0.32 0.32 0.0 0 1 664.22 1451.43
  L 643.21 1509.79
  A 0.32 0.32 0.0 0 1 642.91 1510.00
  L 632.48 1510.00
  A 0.32 0.32 0.0 0 1 632.18 1509.79
  L 611.16 1451.43
  A 0.32 0.32 0.0 0 1 611.47 1451.00
  L 618.01 1451.00
  A 0.32 0.32 0.0 0 1 618.31 1451.21
  L 637.39 1503.74
  A 0.32 0.32 0.0 0 0 637.99 1503.74
  Z"
/>
</svg>
