<?xml version="1.0" encoding="UTF-8" standalone="no"?>
<!DOCTYPE svg PUBLIC "-//W3C//DTD SVG 1.1//EN" "http://www.w3.org/Graphics/SVG/1.1/DTD/svg11.dtd">
<svg xmlns="http://www.w3.org/2000/svg" version="1.1" viewBox="0.00 0.00 1418.00 1478.00">
<path fill="#dcddde" d="
  M 1181.81 1245.94
  C 1253.49 1317.95 1325.14 1389.99 1396.96 1461.86
  A 0.36 0.36 0.0 0 1 1396.70 1462.48
  Q 1062.00 1462.54 727.07 1462.46
  C 593.66 1462.43 463.63 1423.53 351.00 1353.55
  C 241.63 1285.60 150.95 1186.43 91.89 1072.09
  C -19.19 857.05 -15.98 600.56 100.68 388.54
  C 215.58 179.72 426.73 41.31 663.82 17.91
  C 702.38 14.10 742.45 14.78 781.82 14.78
  Q 1062.42 14.73 1342.98 14.75
  A 0.60 0.60 0.0 0 1 1343.37 15.81
  C 1341.96 16.99 1340.72 18.62 1339.57 19.77
  Q 1233.27 126.13 1127.22 232.72
  C 1124.74 235.22 1120.00 234.00 1117.48 234.00
  Q 954.37 234.00 791.25 234.00
  C 700.01 234.00 609.31 259.06 531.72 306.43
  C 303.80 445.58 222.01 736.22 346.26 974.00
  C 419.30 1113.77 556.23 1211.85 711.25 1236.99
  C 739.16 1241.52 768.45 1243.21 797.81 1243.22
  Q 987.97 1243.28 1178.13 1243.24
  A 1.54 1.49 -25.8 0 1 1179.04 1243.54
  Q 1180.55 1244.67 1181.81 1245.94
  Z"
/>
<rect fill="#dcddde" x="506.00" y="604.75" width="897.00" height="263.00" rx="0.36"/>
</svg>
