<?xml version="1.0" encoding="UTF-8" standalone="no"?>
<!DOCTYPE svg PUBLIC "-//W3C//DTD SVG 1.1//EN" "http://www.w3.org/Graphics/SVG/1.1/DTD/svg11.dtd">
<svg xmlns="http://www.w3.org/2000/svg" version="1.1" viewBox="0.00 0.00 1417.00 1479.00">
<path fill="#dcddde" d="
  M 1178.94 1245.30
  L 1395.89 1462.87
  Q 1396.52 1463.49 1395.63 1463.49
  Q 1061.61 1463.51 727.07 1463.49
  C 412.03 1463.47 133.93 1254.47 40.34 953.93
  C -40.16 695.47 31.42 414.39 222.07 224.57
  C 348.57 98.62 517.44 24.45 695.32 15.43
  C 716.79 14.34 738.55 15.09 760.06 14.89
  Q 771.59 14.78 780.06 14.78
  Q 1060.96 14.72 1342.14 14.76
  A 0.47 0.44 20.9 0 1 1342.51 15.51
  L 1125.89 232.75
  A 5.15 5.14 -67.6 0 1 1122.24 234.27
  Q 955.60 234.23 787.75 234.26
  Q 764.55 234.26 733.76 237.62
  C 488.39 264.39 297.12 468.56 286.45 715.74
  C 277.60 920.61 390.02 1108.72 576.23 1196.44
  Q 670.17 1240.69 773.82 1243.77
  Q 780.56 1243.97 793.81 1243.98
  Q 984.97 1244.02 1175.80 1243.99
  A 4.43 4.42 67.5 0 1 1178.94 1245.30
  Z"
/>
<path fill="#0078ed" d="
  M 1386.15 605.19
  Q 1393.53 605.38 1400.94 605.20
  A 1.04 1.04 0.0 0 1 1402.00 606.24
  L 1402.00 867.50
  A 1.00 1.00 0.0 0 1 1401.00 868.50
  L 504.75 868.50
  A 1.00 1.00 0.0 0 1 503.75 867.50
  L 503.75 605.76
  A 0.48 0.48 0.0 0 1 504.22 605.28
  Q 512.24 605.17 520.44 605.17
  Q 963.15 604.96 1377.07 604.99
  A 10.48 0.03 1.4 0 1 1386.15 605.19
  Z"
/>
</svg>
